<?xml version="1.0" encoding="utf-8" standalone="no"?>
<!DOCTYPE svg PUBLIC "-//W3C//DTD SVG 1.1//EN"
  "http://www.w3.org/Graphics/SVG/1.1/DTD/svg11.dtd">
<svg xmlns:xlink="http://www.w3.org/1999/xlink" width="662.48362pt" height="704.16pt" viewBox="0 0 662.48362 704.16" xmlns="http://www.w3.org/2000/svg" version="1.1">
 <metadata>
  <rdf:RDF xmlns:dc="http://purl.org/dc/elements/1.1/" xmlns:cc="http://creativecommons.org/ns#" xmlns:rdf="http://www.w3.org/1999/02/22-rdf-syntax-ns#">
   <cc:Work>
    <dc:type rdf:resource="http://purl.org/dc/dcmitype/StillImage"/>
    <dc:date>2026-01-27T20:21:40.859088</dc:date>
    <dc:format>image/svg+xml</dc:format>
    <dc:creator>
     <cc:Agent>
      <dc:title>Matplotlib v3.10.8, https://matplotlib.org/</dc:title>
     </cc:Agent>
    </dc:creator>
   </cc:Work>
  </rdf:RDF>
 </metadata>
 <defs>
  <style type="text/css">*{stroke-linejoin: round; stroke-linecap: butt}</style>
 </defs>
 <g id="figure_1">
  <g id="patch_1">
   <path d="M 0 704.16 
L 662.48362 704.16 
L 662.48362 0 
L 0 0 
z
" style="fill: #ffffff"/>
  </g>
  <g id="axes_1">
   <g id="patch_2">
    <path d="M 168.365711 477.257566 
C 207.015124 477.257566 244.086761 461.901992 271.416023 434.572729 
C 298.745285 407.243467 314.100859 370.171831 314.100859 331.522418 
C 314.100859 292.873005 298.745285 255.801368 271.416023 228.472106 
C 244.086761 201.142844 207.015124 185.787269 168.365711 185.787269 
C 129.716298 185.787269 92.644661 201.142844 65.315399 228.472106 
C 37.986137 255.801368 22.630562 292.873005 22.630562 331.522418 
C 22.630562 370.171831 37.986137 407.243467 65.315399 434.572729 
C 92.644661 461.901992 129.716298 477.257566 168.365711 477.257566 
z
" clip-path="url(#pf5bb1aaf25)" style="fill: #ff8c00; stroke: #000000; stroke-linejoin: miter"/>
   </g>
   <g id="patch_3">
    <path d="M 494.117909 680.537143 
C 532.767323 680.537143 569.838959 665.181568 597.168221 637.852306 
C 624.497483 610.523044 639.853058 573.451408 639.853058 534.801994 
C 639.853058 496.152581 624.497483 459.080945 597.168221 431.751683 
C 569.838959 404.42242 532.767323 389.066846 494.117909 389.066846 
C 455.468496 389.066846 418.39686 404.42242 391.067598 431.751683 
C 363.738336 459.080945 348.382761 496.152581 348.382761 534.801994 
C 348.382761 573.451408 363.738336 610.523044 391.067598 637.852306 
C 418.39686 665.181568 455.468496 680.537143 494.117909 680.537143 
z
" clip-path="url(#pf5bb1aaf25)" style="fill: #ff8c00; stroke: #000000; stroke-linejoin: miter"/>
   </g>
   <g id="patch_4">
    <path d="M 370.771261 524.254528 
C 415.540165 524.254528 458.481477 506.467654 490.137872 474.811259 
C 521.794267 443.154864 539.581141 400.213552 539.581141 355.444648 
C 539.581141 310.675744 521.794267 267.734432 490.137872 236.078037 
C 458.481477 204.421642 415.540165 186.634768 370.771261 186.634768 
C 326.002357 186.634768 283.061045 204.421642 251.40465 236.078037 
C 219.748255 267.734432 201.961381 310.675744 201.961381 355.444648 
C 201.961381 400.213552 219.748255 443.154864 251.40465 474.811259 
C 283.061045 506.467654 326.002357 524.254528 370.771261 524.254528 
z
" clip-path="url(#pf5bb1aaf25)" style="fill: #7b68ee; stroke: #000000; stroke-linejoin: miter"/>
   </g>
   <g id="patch_5">
    <path d="M 424.199572 344.240184 
C 466.713927 344.240184 507.492727 327.349052 537.554915 297.286863 
C 567.617104 267.224675 584.508236 226.445875 584.508236 183.931521 
C 584.508236 141.417166 567.617104 100.638366 537.554915 70.576178 
C 507.492727 40.513989 466.713927 23.622857 424.199572 23.622857 
C 381.685218 23.622857 340.906418 40.513989 310.844229 70.576178 
C 280.782041 100.638366 263.890909 141.417166 263.890909 183.931521 
C 263.890909 226.445875 280.782041 267.224675 310.844229 297.286863 
C 340.906418 327.349052 381.685218 344.240184 424.199572 344.240184 
z
" clip-path="url(#pf5bb1aaf25)" style="fill: #cd853f; stroke: #000000; stroke-linejoin: miter"/>
   </g>
   <g id="legend_1">
    <g id="patch_6">
     <path d="M 582.035183 80.048125 
L 645.48362 80.048125 
Q 648.28362 80.048125 648.28362 77.248125 
L 648.28362 17 
Q 648.28362 14.2 645.48362 14.2 
L 582.035183 14.2 
Q 579.235183 14.2 579.235183 17 
L 579.235183 77.248125 
Q 579.235183 80.048125 582.035183 80.048125 
z
" style="fill: #ffffff; opacity: 0.8; stroke: #cccccc; stroke-linejoin: miter"/>
    </g>
    <g id="patch_7">
     <path d="M 584.835183 30.437812 
L 612.835183 30.437812 
L 612.835183 20.637812 
L 584.835183 20.637812 
z
" style="fill: #7b68ee; stroke: #000000; stroke-width: 2; stroke-linejoin: miter"/>
    </g>
    <g id="text_1">
     <!-- Cr -->
     <g transform="translate(624.035183 30.437812) scale(0.14 -0.14)">
      <defs>
       <path id="DejaVuSans-43" d="M 4122 4306 
L 4122 3641 
Q 3803 3938 3442 4084 
Q 3081 4231 2675 4231 
Q 1875 4231 1450 3742 
Q 1025 3253 1025 2328 
Q 1025 1406 1450 917 
Q 1875 428 2675 428 
Q 3081 428 3442 575 
Q 3803 722 4122 1019 
L 4122 359 
Q 3791 134 3420 21 
Q 3050 -91 2638 -91 
Q 1578 -91 968 557 
Q 359 1206 359 2328 
Q 359 3453 968 4101 
Q 1578 4750 2638 4750 
Q 3056 4750 3426 4639 
Q 3797 4528 4122 4306 
z
" transform="scale(0.015625)"/>
       <path id="DejaVuSans-72" d="M 2631 2963 
Q 2534 3019 2420 3045 
Q 2306 3072 2169 3072 
Q 1681 3072 1420 2755 
Q 1159 2438 1159 1844 
L 1159 0 
L 581 0 
L 581 3500 
L 1159 3500 
L 1159 2956 
Q 1341 3275 1631 3429 
Q 1922 3584 2338 3584 
Q 2397 3584 2469 3576 
Q 2541 3569 2628 3553 
L 2631 2963 
z
" transform="scale(0.015625)"/>
      </defs>
      <use xlink:href="#DejaVuSans-43"/>
      <use xlink:href="#DejaVuSans-72" transform="translate(69.824219 0)"/>
     </g>
    </g>
    <g id="patch_8">
     <path d="M 584.835183 50.987188 
L 612.835183 50.987188 
L 612.835183 41.187188 
L 584.835183 41.187188 
z
" style="fill: #cd853f; stroke: #000000; stroke-width: 2; stroke-linejoin: miter"/>
    </g>
    <g id="text_2">
     <!-- Cu -->
     <g transform="translate(624.035183 50.987188) scale(0.14 -0.14)">
      <defs>
       <path id="DejaVuSans-75" d="M 544 1381 
L 544 3500 
L 1119 3500 
L 1119 1403 
Q 1119 906 1312 657 
Q 1506 409 1894 409 
Q 2359 409 2629 706 
Q 2900 1003 2900 1516 
L 2900 3500 
L 3475 3500 
L 3475 0 
L 2900 0 
L 2900 538 
Q 2691 219 2414 64 
Q 2138 -91 1772 -91 
Q 1169 -91 856 284 
Q 544 659 544 1381 
z
M 1991 3584 
L 1991 3584 
z
" transform="scale(0.015625)"/>
      </defs>
      <use xlink:href="#DejaVuSans-43"/>
      <use xlink:href="#DejaVuSans-75" transform="translate(69.824219 0)"/>
     </g>
    </g>
    <g id="patch_9">
     <path d="M 584.835183 71.536562 
L 612.835183 71.536562 
L 612.835183 61.736562 
L 584.835183 61.736562 
z
" style="fill: #ff8c00; stroke: #000000; stroke-width: 2; stroke-linejoin: miter"/>
    </g>
    <g id="text_3">
     <!-- Se -->
     <g transform="translate(624.035183 71.536562) scale(0.14 -0.14)">
      <defs>
       <path id="DejaVuSans-53" d="M 3425 4513 
L 3425 3897 
Q 3066 4069 2747 4153 
Q 2428 4238 2131 4238 
Q 1616 4238 1336 4038 
Q 1056 3838 1056 3469 
Q 1056 3159 1242 3001 
Q 1428 2844 1947 2747 
L 2328 2669 
Q 3034 2534 3370 2195 
Q 3706 1856 3706 1288 
Q 3706 609 3251 259 
Q 2797 -91 1919 -91 
Q 1588 -91 1214 -16 
Q 841 59 441 206 
L 441 856 
Q 825 641 1194 531 
Q 1563 422 1919 422 
Q 2459 422 2753 634 
Q 3047 847 3047 1241 
Q 3047 1584 2836 1778 
Q 2625 1972 2144 2069 
L 1759 2144 
Q 1053 2284 737 2584 
Q 422 2884 422 3419 
Q 422 4038 858 4394 
Q 1294 4750 2059 4750 
Q 2388 4750 2728 4690 
Q 3069 4631 3425 4513 
z
" transform="scale(0.015625)"/>
       <path id="DejaVuSans-65" d="M 3597 1894 
L 3597 1613 
L 953 1613 
Q 991 1019 1311 708 
Q 1631 397 2203 397 
Q 2534 397 2845 478 
Q 3156 559 3463 722 
L 3463 178 
Q 3153 47 2828 -22 
Q 2503 -91 2169 -91 
Q 1331 -91 842 396 
Q 353 884 353 1716 
Q 353 2575 817 3079 
Q 1281 3584 2069 3584 
Q 2775 3584 3186 3129 
Q 3597 2675 3597 1894 
z
M 3022 2063 
Q 3016 2534 2758 2815 
Q 2500 3097 2075 3097 
Q 1594 3097 1305 2825 
Q 1016 2553 972 2059 
L 3022 2063 
z
" transform="scale(0.015625)"/>
      </defs>
      <use xlink:href="#DejaVuSans-53"/>
      <use xlink:href="#DejaVuSans-65" transform="translate(63.476562 0)"/>
     </g>
    </g>
   </g>
  </g>
 </g>
 <defs>
  <clipPath id="pf5bb1aaf25">
   <rect x="7.2" y="7.2" width="648.08362" height="689.76"/>
  </clipPath>
 </defs>
</svg>
